HIERARCHY
ROOT Hips
{
	OFFSET 0.000000 0.000000 0.000000 
	CHANNELS 6 Xposition Yposition Zposition Zrotation Yrotation Xrotation
	JOINT LeftUpLeg
	{
		OFFSET 1.363060 -1.794630 0.839290 
		CHANNELS 3 Zrotation Yrotation Xrotation
		JOINT LeftLeg
		{
			OFFSET 2.448110 -6.726130 0.000000 
			CHANNELS 3 Zrotation Yrotation Xrotation
			JOINT LeftFoot
			{
				OFFSET 2.562200 -7.039590 0.000000 
				CHANNELS 3 Zrotation Yrotation Xrotation
				JOINT LeftToeBase
				{
					OFFSET 0.157640 -0.433110 2.322550 
					CHANNELS 3 Zrotation Yrotation Xrotation
					End Site
					{
						OFFSET 0.000000 0.000000 0.000000 
					}
				}
			}
		}
	}
	JOINT RightUpLeg
	{
		OFFSET -1.305520 -1.794630 0.839290 
		CHANNELS 3 Zrotation Yrotation Xrotation
		JOINT RightLeg
		{
			OFFSET -2.542530 -6.985550 0.000000 
			CHANNELS 3 Zrotation Yrotation Xrotation
			JOINT RightFoot
			{
				OFFSET -2.568260 -7.056230 0.000000 
				CHANNELS 3 Zrotation Yrotation Xrotation
				JOINT RightToeBase
				{
					OFFSET -0.164730 -0.452590 2.363150 
					CHANNELS 3 Zrotation Yrotation Xrotation
					End Site
					{
						OFFSET 0.000000 0.000000 0.000000 
					}
				}
			}
		}
	}
	JOINT Spine
	{
		OFFSET 0.028270 2.035590 -0.193380 
		CHANNELS 3 Zrotation Yrotation Xrotation
		JOINT Spine1
		{
			OFFSET 0.056720 2.048850 -0.042750 
			CHANNELS 3 Zrotation Yrotation Xrotation
			JOINT Neck1
			{
				OFFSET -0.054170 1.746240 0.172020 
				CHANNELS 3 Zrotation Yrotation Xrotation
				JOINT Head
				{
					OFFSET 0.104070 1.761360 -0.123970 
					CHANNELS 3 Zrotation Yrotation Xrotation
					End Site
					{
						OFFSET 0.000000 0.000000 0.000000 
					}
				}
			}
			JOINT LeftArm
			{
				OFFSET 3.362410 1.200890 -0.311210 
				CHANNELS 3 Zrotation Yrotation Xrotation
				JOINT LeftForeArm
				{
					OFFSET 4.983000 -0.000000 -0.000000 
					CHANNELS 3 Zrotation Yrotation Xrotation
					JOINT LeftHand
					{
						OFFSET 3.483560 -0.000000 -0.000000 
						CHANNELS 3 Zrotation Yrotation Xrotation
						JOINT LeftHandIndex1
						{
							OFFSET 0.715260 -0.000000 -0.000000 
							CHANNELS 3 Zrotation Yrotation Xrotation
							End Site
							{
								OFFSET 0.000000 0.000000 0.000000 
							}
						}
					}
				}
			}
			JOINT RightArm
			{
				OFFSET -3.136600 1.374050 -0.404650 
				CHANNELS 3 Zrotation Yrotation Xrotation
				JOINT RightForeArm
				{
					OFFSET -5.241900 -0.000000 -0.000000 
					CHANNELS 3 Zrotation Yrotation Xrotation
					JOINT RightHand
					{
						OFFSET -3.444170 -0.000000 -0.000000 
						CHANNELS 3 Zrotation Yrotation Xrotation
						JOINT RightHandIndex1
						{
							OFFSET -0.622530 -0.000000 -0.000000 
							CHANNELS 3 Zrotation Yrotation Xrotation
							End Site
							{
								OFFSET 0.000000 0.000000 0.000000 
							}
						}
					}
				}
			}
		}
	}
}
MOTION
Frames: 10
Frame Time: 0.041667
-1.771121 12.266885 -0.498580 -63.806588 -86.399478 79.050894 -37.892640 -3.488281 6.243631 5.692669 17.885834 69.540106 -1.752948 -27.633068 4.122902 11.483200 -18.163500 -64.341100 22.324374 30.636654 -74.620441 -12.525137 -36.424747 83.926060 -2.955231 18.982590 -20.479032 -0.009300 0.622900 -1.711700 2.049252 0.590552 -4.517689 3.468035 0.311614 -19.128522 -6.251243 5.751510 10.126896 -4.715700 0.569900 10.912400 -59.337204 -6.990633 -20.380812 11.839571 -19.208453 -4.501387 -1.614276 -0.940785 -21.801759 -7.125000 0.000000 0.000000 43.585454 -0.719834 39.373612 -18.471394 29.022520 -4.848614 1.015258 0.852717 -55.060616 7.125000 0.000000 0.000000 
-1.798158 12.142046 -0.482335 -54.850039 -86.461120 69.907614 -38.259816 -3.451345 6.541990 6.067690 17.951921 70.650554 -1.746460 -27.902491 3.389381 11.558000 -18.197500 -64.580900 21.942310 30.357437 -75.332243 -13.351657 -36.483543 85.662396 -3.300364 18.865257 -21.550741 -0.064300 1.635900 -4.500300 2.073606 0.494647 -4.494206 3.680273 0.285942 -19.175617 -6.318858 5.866651 10.218148 -4.736800 0.595500 10.983600 -57.800681 -5.384848 -24.053856 11.881949 -18.957783 -4.580666 -1.608042 -0.949553 -21.682225 -7.125000 0.000000 0.000000 42.420006 -3.237863 36.487253 -16.947452 27.485356 -4.486755 1.114727 0.794800 -53.631839 7.125000 0.000000 0.000000 
-1.827421 12.024661 -0.466535 -45.314909 -86.569781 60.206664 -38.673828 -3.356897 6.774699 6.432759 18.026517 71.732449 -1.709482 -28.207796 2.439556 11.704300 -18.262800 -65.048400 21.496714 30.064534 -76.011305 -14.162689 -36.517032 87.387679 -3.537814 18.770230 -22.232556 -0.156600 2.549600 -7.027100 2.065850 0.455272 -4.490820 3.833008 0.290900 -19.253841 -6.365311 5.860858 10.333254 -4.711800 0.553500 11.017500 -56.218237 -3.985954 -27.629259 11.828095 -18.583782 -4.623652 -1.610556 -0.978120 -21.243696 -7.125000 0.000000 0.000000 41.430626 -5.872105 33.059219 -15.559336 26.061315 -4.211843 1.190299 0.743667 -52.217535 7.125000 0.000000 0.000000 
-1.859799 11.916733 -0.448733 -36.454793 -86.604535 51.170868 -38.955673 -3.148672 6.893542 6.755880 18.086756 72.717992 -1.776070 -28.455494 2.312417 11.722100 -18.270700 -65.105300 21.166047 29.811899 -76.540485 -14.873118 -36.533593 88.923329 -3.807419 18.144782 -23.017067 -0.492200 4.498200 -12.482800 2.024375 0.435261 -4.493765 3.763026 0.278964 -19.323947 -6.523826 5.853600 10.529343 -4.787900 0.506300 11.130800 -54.553324 -2.252167 -29.428828 12.013023 -18.665664 -4.769259 -1.583744 -1.091644 -22.266517 -7.125000 0.000000 0.000000 40.707361 -8.461928 29.172863 -14.341277 24.779437 -4.008663 1.247936 0.686104 -51.005850 7.125000 0.000000 0.000000 
-1.901746 11.821490 -0.430485 -30.080704 -86.533058 44.593393 -38.984487 -2.906492 7.080062 6.970790 18.078612 73.372177 -1.893274 -28.684072 2.700202 11.730600 -18.274400 -65.132300 21.072122 29.652292 -76.846205 -15.475263 -36.505203 90.261576 -4.053251 17.732881 -23.739316 -0.712600 5.394800 -15.038200 1.987367 0.395128 -4.498924 3.655917 0.253881 -19.367651 -6.707472 5.884448 10.773877 -4.913500 0.484200 11.294600 -52.809928 -0.537041 -30.854801 12.120119 -18.713401 -4.910386 -1.561727 -1.241475 -23.351104 -7.125000 0.000000 0.000000 39.854986 -10.927163 25.662837 -13.394230 23.703914 -3.857032 1.266530 0.649237 -50.319941 7.125000 0.000000 0.000000 
-1.943693 11.735705 -0.417356 -27.135325 -86.387784 41.373997 -38.746313 -2.721825 7.348871 7.058608 17.999644 73.623533 -2.049035 -29.022970 3.464983 11.795800 -18.303000 -65.340000 21.274713 29.591202 -76.960853 -16.014881 -36.409522 91.521967 -4.224263 18.112044 -24.223011 -0.515900 4.603500 -12.781100 2.012825 0.275235 -4.505370 3.866776 0.241080 -19.455593 -6.897283 6.030776 10.964780 -5.044800 0.517100 11.420700 -51.110672 0.812050 -33.706380 11.908812 -18.255804 -4.936404 -1.592676 -1.366790 -22.519290 -7.125000 0.000000 0.000000 38.681034 -13.151226 22.871522 -12.533440 22.607442 -3.663889 1.251435 0.642493 -49.666017 7.125000 0.000000 0.000000 
-1.978853 11.661157 -0.407898 -24.766281 -86.270840 38.692541 -38.442891 -2.551002 7.646825 7.081503 17.897808 73.689829 -2.224584 -29.286756 4.508285 11.880300 -18.339600 -65.608900 21.635431 29.506500 -77.007548 -16.512775 -36.298758 92.713614 -4.463309 18.113242 -24.924222 -0.422300 4.171000 -11.558300 2.004836 0.095288 -4.489742 4.288284 0.235651 -19.565578 -6.226413 5.743591 10.373094 -4.387800 0.456500 10.642900 -49.557765 2.329831 -35.728300 11.754220 -18.011409 -5.035219 -1.645433 -1.541757 -21.416856 -7.125000 0.000000 0.000000 37.516549 -15.013555 19.992416 -11.477495 21.282371 -3.393007 1.239831 0.619188 -47.808161 7.125000 0.000000 0.000000 
-2.012900 11.603299 -0.396327 -18.922969 -86.305473 32.557361 -38.316653 -2.301772 7.875904 7.110004 17.827329 73.807487 -2.448110 -29.780668 5.620821 11.965700 -18.376100 -65.880100 21.801774 29.379627 -77.026337 -16.970849 -36.221498 93.793109 -4.699586 17.344700 -25.608814 -0.439200 4.252600 -11.788500 1.982380 -0.097146 -4.474291 4.216776 0.162258 -19.421957 -6.997880 6.284407 11.121363 -5.063400 0.600600 11.454800 -47.669023 3.687540 -36.793717 11.478292 -17.742059 -5.127622 -1.741771 -1.818972 -19.456150 -7.125000 0.000000 0.000000 36.603611 -16.750028 17.487954 -10.481279 19.954293 -3.127693 1.255303 0.548903 -45.722575 7.125000 0.000000 0.000000 
-2.051064 11.557013 -0.385200 -11.284571 -86.336602 24.566572 -38.304485 -2.074468 8.171284 7.119668 17.757636 73.892729 -2.676892 -30.279217 6.733717 12.046100 -18.410000 -66.134700 21.872671 29.344557 -76.897784 -17.339900 -36.146176 94.681501 -4.802219 16.717522 -25.884364 -0.367500 3.893900 -10.778400 1.865744 -0.229007 -4.446001 3.950492 0.102439 -19.287731 -7.235279 6.365816 11.467206 -5.289600 0.612800 11.770100 -45.312142 4.490370 -38.932682 10.965659 -16.955076 -5.031548 -1.945603 -2.059482 -15.411733 -7.125000 0.000000 0.000000 35.810506 -18.735806 15.779477 -9.570192 18.812435 -2.937307 1.278193 0.458054 -43.994606 7.125000 0.000000 0.000000 
-2.092232 11.520295 -0.380082 -5.989598 -86.317758 18.962440 -38.245349 -1.925242 8.555254 7.050488 17.661639 73.735392 -2.839980 -30.451105 7.790387 12.107400 -18.435700 -66.328900 21.998883 29.455327 -76.832501 -17.641854 -36.083185 95.448035 -4.892270 16.081789 -26.148681 -0.337100 3.731000 -10.321000 1.704703 -0.300285 -4.424601 3.656915 0.072949 -19.191842 -6.916253 6.161923 11.559095 -5.011000 0.532500 11.716800 -42.800228 5.079877 -41.808843 10.580670 -16.144644 -4.902271 -2.216852 -2.227361 -11.441493 -7.125000 0.000000 0.000000 35.022225 -20.843123 14.514184 -8.758846 17.869524 -2.872100 1.296593 0.358705 -42.246267 7.125000 0.000000 0.000000 
